<?xml version="1.0" encoding="iso-8859-1"?>
<!-- Generator: Adobe Illustrator 19.0.0, SVG Export Plug-In . SVG Version: 6.00 Build 0)  -->
<svg version="1.1" id="Capa_1" xmlns="http://www.w3.org/2000/svg" xmlns:xlink="http://www.w3.org/1999/xlink" x="0px" y="0px"
	 viewBox="0 0 512 512" style="enable-background:new 0 0 512 512;" xml:space="preserve">
<g>
	<path style="fill:#DEECF1;" d="M256.188,301.996c-0.977,0-1.943-0.041-2.905-0.101L241,331.649V512h30V331.173l-12.161-29.258
		C257.961,301.964,257.078,301.996,256.188,301.996z"/>
	<path style="fill:#DEECF1;" d="M256.188,210.004c0.853,0,1.7,0.027,2.542,0.073L271,180.351V0h-30v180.827l12.173,29.287
		C254.17,210.049,255.174,210.004,256.188,210.004z"/>
	<path style="fill:#DEECF1;" d="M210.191,256c0-0.889,0.032-1.771,0.082-2.648L180.351,241H0v30h180.829l29.453-12.242
		C210.227,257.845,210.191,256.927,210.191,256z"/>
	<path style="fill:#DEECF1;" d="M331.172,241l-29.09,12.091c0.06,0.963,0.102,1.931,0.102,2.909c0,0.94-0.037,1.871-0.093,2.798
		L331.65,271H512v-30H331.172z"/>
</g>
<g>
	<path style="fill:#FF9F00;" d="M221.773,286.47l-29.871,12.415L64.375,426.413l21.213,21.213l127.864-127.865l12.154-29.443
		C224.254,289.112,222.975,287.826,221.773,286.47z"/>
	<path style="fill:#FF9F00;" d="M290.503,225.416l29.595-12.301L447.626,85.587l-21.213-21.213L298.549,192.238l-12.055,29.205
		C287.909,222.686,289.249,224.01,290.503,225.416z"/>
	<path style="fill:#FF9F00;" d="M225.523,221.754l-12.407-29.852L85.587,64.374L64.375,85.587L192.24,213.452l29.462,12.162
		C222.9,224.254,224.173,222.964,225.523,221.754z"/>
	<path style="fill:#FF9F00;" d="M286.577,290.484l12.309,29.615l127.527,127.527l21.213-21.213L319.761,298.548L290.576,286.5
		C289.325,287.909,287.989,289.238,286.577,290.484z"/>
</g>
<g>
	<path style="fill:#1428BF;" d="M225.606,290.318l-12.154,29.443l-39.909,96.679l27.73,11.447L241,331.649l12.282-29.754
		C242.691,301.231,233.063,296.97,225.606,290.318z"/>
	<path style="fill:#1428BF;" d="M286.493,221.443l12.055-29.205l39.908-96.678l-27.73-11.447L271,180.351l-12.271,29.727
		C269.335,210.658,278.989,214.854,286.493,221.443z"/>
</g>
<g>
	
		<rect x="329.414" y="19.032" transform="matrix(-0.9243 -0.3816 0.3816 -0.9243 646.8158 211.8507)" style="fill:#27B2EB;" width="29.999" height="45.517"/>
	
		<rect x="152.591" y="447.484" transform="matrix(0.9243 0.3816 -0.3816 0.9243 192.1317 -28.3679)" style="fill:#27B2EB;" width="29.999" height="45.516"/>
</g>
<g>
	
		<rect x="322.188" y="455.015" transform="matrix(0.3838 0.9234 -0.9234 0.3838 646.5718 -28.9076)" style="fill:#6D2F98;" width="45.516" height="30"/>
	
		<rect x="144.291" y="26.989" transform="matrix(-0.3838 -0.9234 0.9234 -0.3838 192.39 212.3593)" style="fill:#6D2F98;" width="45.516" height="30"/>
</g>
<g>
	
		<rect x="447.44" y="329.436" transform="matrix(-0.9243 -0.3816 0.3816 -0.9243 773.3725 842.238)" style="fill:#27B2EB;" width="45.516" height="29.999"/>
	
		<rect x="19.025" y="152.573" transform="matrix(0.9243 0.3816 -0.3816 0.9243 67.1092 -3.2635)" style="fill:#27B2EB;" width="45.516" height="29.999"/>
</g>
<g>
	
		<rect x="19.238" y="329.944" transform="matrix(-0.9234 0.3838 -0.3838 -0.9234 213.1668 647.3516)" style="fill:#6D2F98;" width="45.516" height="30"/>
	
		<rect x="447.262" y="152.056" transform="matrix(0.9234 -0.3838 0.3838 0.9234 -28.1197 193.1907)" style="fill:#6D2F98;" width="45.516" height="30"/>
</g>
<g>
	<path style="fill:#1428BF;" d="M221.701,225.613l-29.462-12.162L95.56,173.543l-11.447,27.73L180.351,241l29.922,12.352
		C210.878,242.75,215.093,233.104,221.701,225.613z"/>
	<path style="fill:#1428BF;" d="M290.576,286.5l29.185,12.047l96.68,39.909l11.447-27.73L331.65,271l-29.56-12.202
		C301.451,269.394,297.21,279.029,290.576,286.5z"/>
</g>
<g>
	<path style="fill:#FF5CA8;" d="M210.282,258.758L180.829,271l-96.582,40.143l11.514,27.702l96.142-39.96l29.871-12.415
		C215.146,278.994,210.912,269.355,210.282,258.758z"/>
	<path style="fill:#FF5CA8;" d="M302.082,253.091L331.172,241l96.582-40.143l-11.514-27.702l-96.142,39.96l-29.595,12.301
		C297.156,232.872,301.417,242.5,302.082,253.091z"/>
	<path style="fill:#FF5CA8;" d="M253.173,210.114L241,180.827l-40.142-96.58L173.156,95.76l39.96,96.142l12.407,29.852
		C232.965,215.083,242.586,210.803,253.173,210.114z"/>
	<path style="fill:#FF5CA8;" d="M258.839,301.914L271,331.173l40.143,96.582l27.703-11.514l-39.96-96.141l-12.309-29.615
		C279.087,297.093,269.441,301.308,258.839,301.914z"/>
</g>
<g>
	<path style="fill:#FFDE46;" d="M290.503,225.416c-1.254-1.405-2.594-2.73-4.01-3.973c-7.505-6.589-17.158-10.785-27.764-11.366
		c-0.842-0.046-1.688-0.073-2.542-0.073c-1.014,0-2.017,0.045-3.015,0.11c-10.587,0.689-20.207,4.969-27.65,11.641
		c-1.349,1.209-2.623,2.5-3.822,3.859c-6.608,7.491-10.823,17.137-11.428,27.739c-0.05,0.877-0.082,1.759-0.082,2.648
		c0,0.927,0.036,1.845,0.09,2.758c0.63,10.597,4.864,20.235,11.491,27.712c1.202,1.356,2.481,2.642,3.833,3.848
		c7.457,6.652,17.085,10.913,27.677,11.577c0.962,0.06,1.928,0.101,2.905,0.101c0.891,0,1.773-0.032,2.652-0.082
		c10.602-0.606,20.248-4.821,27.738-11.43c1.412-1.246,2.748-2.576,3.999-3.984c6.634-7.471,10.875-17.107,11.515-27.703
		c0.056-0.926,0.093-1.858,0.093-2.798c0-0.978-0.041-1.946-0.102-2.909C301.417,242.5,297.156,232.872,290.503,225.416z
		 M256.188,271.996c-8.82,0-15.996-7.176-15.996-15.996s7.176-15.996,15.996-15.996s15.996,7.176,15.996,15.996
		S265.008,271.996,256.188,271.996z"/>
	
		<rect x="464.544" y="17.257" transform="matrix(-0.7071 -0.7071 0.7071 -0.7071 796.0374 394.2437)" style="fill:#FFDE46;" width="30.25" height="30"/>
	
		<rect x="16.139" y="465.724" transform="matrix(0.7071 0.7071 -0.7071 0.7071 349.1316 118.8184)" style="fill:#FFDE46;" width="30" height="30.25"/>
	
		<rect x="464.691" y="465.698" transform="matrix(0.7071 0.7071 -0.7071 0.7071 480.4914 -198.3633)" style="fill:#FFDE46;" width="30" height="30.25"/>
	
		<rect x="15.989" y="17.291" transform="matrix(-0.7071 -0.7071 0.7071 -0.7071 30.2822 77.1241)" style="fill:#FFDE46;" width="30.25" height="30"/>
</g>
<g>
	<path style="fill:#C6E2E7;" d="M258.839,301.914c-0.878,0.05-1.761,0.082-2.652,0.082c-0.061,0-0.12-0.003-0.181-0.003V512H271
		V331.173L258.839,301.914z"/>
	<path style="fill:#C6E2E7;" d="M256.007,0v210.008c0.061,0,0.12-0.004,0.181-0.004c0.853,0,1.7,0.027,2.542,0.073L271,180.351V0
		H256.007z"/>
	<path style="fill:#C6E2E7;" d="M331.172,241l-29.09,12.091c0.06,0.963,0.102,1.931,0.102,2.909c0,0.94-0.037,1.871-0.093,2.798
		L331.65,271H512v-30H331.172z"/>
</g>
<g>
	<path style="fill:#E47500;" d="M290.503,225.416l29.595-12.301L447.626,85.587l-21.213-21.213L298.549,192.238l-12.055,29.205
		C287.909,222.686,289.249,224.01,290.503,225.416z"/>
	<path style="fill:#E47500;" d="M286.577,290.484l12.309,29.615l127.527,127.527l21.213-21.213L319.761,298.548L290.576,286.5
		C289.325,287.909,287.989,289.238,286.577,290.484z"/>
</g>
<path style="fill:#1020A1;" d="M286.493,221.443l12.055-29.205l39.908-96.678l-27.73-11.447L271,180.351l-12.271,29.727
	C269.335,210.658,278.989,214.854,286.493,221.443z"/>
<rect x="329.414" y="19.032" transform="matrix(-0.9243 -0.3816 0.3816 -0.9243 646.8158 211.8507)" style="fill:#009AE4;" width="29.999" height="45.517"/>
<rect x="322.188" y="455.015" transform="matrix(0.3838 0.9234 -0.9234 0.3838 646.5718 -28.9076)" style="fill:#55147E;" width="45.516" height="30"/>
<rect x="447.44" y="329.436" transform="matrix(-0.9243 -0.3816 0.3816 -0.9243 773.3725 842.238)" style="fill:#009AE4;" width="45.516" height="29.999"/>
<rect x="447.262" y="152.056" transform="matrix(0.9234 -0.3838 0.3838 0.9234 -28.1197 193.1907)" style="fill:#55147E;" width="45.516" height="30"/>
<path style="fill:#1020A1;" d="M290.576,286.5l29.185,12.047l96.68,39.909l11.447-27.73L331.65,271l-29.56-12.202
	C301.451,269.394,297.21,279.029,290.576,286.5z"/>
<g>
	<path style="fill:#FF3997;" d="M302.082,253.091L331.172,241l96.582-40.143l-11.514-27.702l-96.142,39.96l-29.595,12.301
		C297.156,232.872,301.417,242.5,302.082,253.091z"/>
	<path style="fill:#FF3997;" d="M258.839,301.914L271,331.173l40.143,96.582l27.703-11.514l-39.96-96.141l-12.309-29.615
		C279.087,297.093,269.441,301.308,258.839,301.914z"/>
</g>
<g>
	<path style="fill:#FFCD00;" d="M302.082,253.091c-0.665-10.591-4.926-20.219-11.579-27.675c-1.254-1.405-2.594-2.73-4.01-3.973
		c-7.505-6.589-17.158-10.785-27.764-11.366c-0.842-0.046-1.688-0.073-2.542-0.073c-0.061,0-0.12,0.003-0.181,0.004v30.005
		c0.061-0.001,0.12-0.009,0.181-0.009c8.82,0,15.996,7.176,15.996,15.996s-7.176,15.996-15.996,15.996
		c-0.061,0-0.12-0.009-0.181-0.009v30.006c0.06,0,0.12,0.003,0.181,0.003c0.891,0,1.773-0.032,2.652-0.082
		c10.602-0.606,20.248-4.821,27.738-11.43c1.412-1.246,2.748-2.576,3.999-3.984c6.634-7.471,10.875-17.107,11.515-27.703
		c0.056-0.926,0.093-1.858,0.093-2.798C302.184,255.022,302.142,254.054,302.082,253.091z"/>
	
		<rect x="464.544" y="17.257" transform="matrix(-0.7071 -0.7071 0.7071 -0.7071 796.0374 394.2437)" style="fill:#FFCD00;" width="30.25" height="30"/>
	
		<rect x="464.691" y="465.698" transform="matrix(0.7071 0.7071 -0.7071 0.7071 480.4914 -198.3633)" style="fill:#FFCD00;" width="30" height="30.25"/>
</g>
<g>
</g>
<g>
</g>
<g>
</g>
<g>
</g>
<g>
</g>
<g>
</g>
<g>
</g>
<g>
</g>
<g>
</g>
<g>
</g>
<g>
</g>
<g>
</g>
<g>
</g>
<g>
</g>
<g>
</g>
</svg>
