<?xml version="1.0" encoding="utf-8"?>
<!-- Generator: Adobe Illustrator 24.0.1, SVG Export Plug-In . SVG Version: 6.00 Build 0)  -->
<svg version="1.1" id="Capa_1" xmlns="http://www.w3.org/2000/svg" xmlns:xlink="http://www.w3.org/1999/xlink" x="0px" y="0px"
	 viewBox="0 0 500.3 500.3" style="enable-background:new 0 0 500.3 500.3;" xml:space="preserve">
<style type="text/css">
	.st0{fill:#0081FF;stroke:#000000;stroke-width:24;stroke-linecap:round;stroke-linejoin:round;stroke-miterlimit:10;}
</style>
<path class="st0" d="M484.2,281.6v-61.4l-62.9-20.5c-2.9-11.7-7.3-21.9-13.2-32.2l30.7-60L395,63.6l-60,30.7
	c-10.2-5.9-21.9-10.2-32.2-13.2l-20.5-62.9h-61.4l-21.9,61.4c-11.7,2.9-21.9,7.3-32.2,13.2l-60-29.3l-43.9,43.9l30.7,60
	c-5.9,10.2-10.2,21.9-13.2,32.2l-62.9,20.5v61.4L79,302.1c2.9,11.7,7.3,21.9,13.2,32.2l-30.7,60l43.9,43.9l60-30.7
	c10.2,5.9,21.9,10.2,32.2,13.2l20.5,62.9h61.4l20.5-62.9c11.7-2.9,21.9-7.3,32.2-13.2l60,30.7l43.9-43.9l-30.7-60
	c5.9-10.2,10.2-21.9,13.2-32.2L484.2,281.6z M250.1,340.1c-49.3,0-89.2-40-89.2-89.2s40-89.2,89.2-89.2c49.3,0,89.2,40,89.2,89.2
	S299.4,340.1,250.1,340.1z"/>
</svg>
